<svg xmlns="http://www.w3.org/2000/svg" xmlns:xlink="http://www.w3.org/1999/xlink" width="500" zoomAndPan="magnify" viewBox="0 0 375 374.999991" height="500" preserveAspectRatio="xMidYMid meet" version="1.0"><defs><g/><clipPath id="c1dd6c0a4f"><path d="M 111.449219 203 L 177 203 L 177 253 L 111.449219 253 Z M 111.449219 203 " clip-rule="nonzero"/></clipPath><clipPath id="a2bfe53ea9"><path d="M 182 75.214844 L 189 75.214844 L 189 270.214844 L 182 270.214844 Z M 182 75.214844 " clip-rule="nonzero"/></clipPath><clipPath id="36dea5a3ef"><path d="M 193 92 L 263.699219 92 L 263.699219 254 L 193 254 Z M 193 92 " clip-rule="nonzero"/></clipPath></defs><path fill="#5ce1e6" d="M 176.375 182.039062 L 176.375 155.882812 C 159.777344 153.652344 146.171875 149.660156 146.171875 137.355469 C 146.171875 126.34375 155.972656 117.628906 176.375 117.332031 L 176.375 92.539062 C 148.605469 92.820312 118.132812 105.542969 118.132812 136.492188 C 118.132812 169.929688 145.949219 178.3125 176.375 182.039062 Z M 176.375 182.039062 " fill-opacity="1" fill-rule="nonzero"/><g clip-path="url(#c1dd6c0a4f)"><path fill="#5ce1e6" d="M 176.375 226.976562 C 158.519531 226.640625 141.703125 219.273438 135.171875 203.070312 L 111.449219 215.355469 C 122.5625 242.675781 145.953125 252.230469 176.375 252.40625 Z M 176.375 226.976562 " fill-opacity="1" fill-rule="nonzero"/></g><g clip-path="url(#a2bfe53ea9)"><path fill="#5ce1e6" d="M 182.644531 75.234375 L 188.917969 75.234375 L 188.917969 270.199219 L 182.644531 270.199219 Z M 182.644531 75.234375 " fill-opacity="1" fill-rule="nonzero"/></g><g clip-path="url(#36dea5a3ef)"><path fill="#ffffff" d="M 233.679688 92.847656 L 233.679688 160.355469 L 193.285156 160.355469 L 193.285156 188.273438 L 233.679688 188.273438 L 233.679688 253.03125 L 263.6875 253.03125 L 263.6875 92.847656 Z M 233.679688 92.847656 " fill-opacity="1" fill-rule="nonzero"/></g><g fill="#ffffff" fill-opacity="1"><g transform="translate(113.413467, 293.999042)"><g><path d="M 9.140625 0.34375 C 13.574219 0.34375 16.164062 -1.898438 16.164062 -5.445312 C 16.164062 -9.707031 12.441406 -10.542969 9.3125 -11.234375 C 7.023438 -11.753906 5 -12.195312 5 -13.921875 C 5 -15.347656 6.28125 -16.113281 8.054688 -16.113281 C 9.976562 -16.113281 11.578125 -15.203125 12.046875 -13.207031 L 15.667969 -13.207031 C 15.078125 -17.269531 11.753906 -19.144531 8.128906 -19.144531 C 4.335938 -19.144531 1.476562 -17.246094 1.476562 -13.625 C 1.476562 -9.65625 4.976562 -8.894531 8.054688 -8.203125 C 10.445312 -7.6875 12.589844 -7.21875 12.589844 -5.273438 C 12.589844 -3.472656 11.113281 -2.683594 9.164062 -2.683594 C 7.195312 -2.683594 5.148438 -3.425781 4.535156 -6.109375 L 0.863281 -6.109375 C 1.332031 -1.257812 5.519531 0.34375 9.140625 0.34375 Z M 9.140625 0.34375 "/></g></g></g><g fill="#ffffff" fill-opacity="1"><g transform="translate(130.55794, 293.999042)"><g><path d="M 6.332031 0.269531 C 7.957031 0.269531 9.066406 -0.320312 10.078125 -1.75 L 10.078125 0 L 13.402344 0 L 13.402344 -13.820312 L 10.078125 -13.820312 L 10.078125 -6.800781 C 10.078125 -4.976562 9.855469 -3.964844 9.289062 -3.300781 C 8.820312 -2.734375 8.128906 -2.464844 7.167969 -2.464844 C 6.382812 -2.464844 5.8125 -2.660156 5.421875 -3.078125 C 4.953125 -3.597656 4.753906 -4.410156 4.753906 -5.839844 L 4.753906 -13.820312 L 1.429688 -13.820312 L 1.429688 -5.863281 C 1.429688 -3.867188 1.578125 -2.933594 2.019531 -2.019531 C 2.757812 -0.492188 4.1875 0.269531 6.332031 0.269531 Z M 6.332031 0.269531 "/></g></g></g><g fill="#ffffff" fill-opacity="1"><g transform="translate(145.485463, 293.999042)"><g><path d="M 8.769531 -14.09375 C 7.144531 -14.09375 5.960938 -13.625 4.855469 -12.074219 L 4.855469 -13.820312 L 1.527344 -13.820312 L 1.527344 4.976562 L 4.855469 4.976562 L 4.855469 -1.75 C 5.960938 -0.171875 7.144531 0.296875 8.769531 0.296875 C 12.394531 0.296875 14.855469 -2.660156 14.855469 -6.898438 C 14.855469 -11.136719 12.394531 -14.09375 8.769531 -14.09375 Z M 8.007812 -11.234375 C 10.125 -11.234375 11.503906 -9.410156 11.503906 -6.898438 C 11.503906 -4.386719 10.125 -2.5625 8.007812 -2.5625 C 5.886719 -2.5625 4.433594 -4.335938 4.433594 -6.898438 C 4.433594 -9.460938 5.886719 -11.234375 8.007812 -11.234375 Z M 8.007812 -11.234375 "/></g></g></g><g fill="#ffffff" fill-opacity="1"><g transform="translate(161.324394, 293.999042)"><g><path d="M 8.769531 -14.09375 C 7.144531 -14.09375 5.960938 -13.625 4.855469 -12.074219 L 4.855469 -13.820312 L 1.527344 -13.820312 L 1.527344 4.976562 L 4.855469 4.976562 L 4.855469 -1.75 C 5.960938 -0.171875 7.144531 0.296875 8.769531 0.296875 C 12.394531 0.296875 14.855469 -2.660156 14.855469 -6.898438 C 14.855469 -11.136719 12.394531 -14.09375 8.769531 -14.09375 Z M 8.007812 -11.234375 C 10.125 -11.234375 11.503906 -9.410156 11.503906 -6.898438 C 11.503906 -4.386719 10.125 -2.5625 8.007812 -2.5625 C 5.886719 -2.5625 4.433594 -4.335938 4.433594 -6.898438 C 4.433594 -9.460938 5.886719 -11.234375 8.007812 -11.234375 Z M 8.007812 -11.234375 "/></g></g></g><g fill="#ffffff" fill-opacity="1"><g transform="translate(177.163325, 293.999042)"><g><path d="M 8.007812 0.269531 C 12.246094 0.269531 15.101562 -2.683594 15.101562 -6.996094 C 15.101562 -11.160156 12.195312 -14.117188 8.007812 -14.117188 C 3.820312 -14.117188 0.9375 -11.183594 0.9375 -6.996094 C 0.9375 -2.660156 3.84375 0.269531 8.007812 0.269531 Z M 8.007812 -2.585938 C 5.863281 -2.585938 4.335938 -4.359375 4.335938 -6.996094 C 4.335938 -9.484375 5.863281 -11.257812 8.007812 -11.257812 C 10.199219 -11.257812 11.652344 -9.460938 11.652344 -6.996094 C 11.652344 -4.410156 10.175781 -2.585938 8.007812 -2.585938 Z M 8.007812 -2.585938 "/></g></g></g><g fill="#ffffff" fill-opacity="1"><g transform="translate(193.223951, 293.999042)"><g><path d="M 4.828125 0 L 4.828125 -6.40625 C 4.828125 -8.230469 5.199219 -9.335938 5.9375 -10.078125 C 6.480469 -10.59375 7.269531 -10.914062 8.402344 -10.914062 L 9.164062 -10.914062 L 9.164062 -14.117188 L 8.769531 -14.117188 C 7.144531 -14.117188 5.886719 -13.625 4.828125 -12.171875 L 4.828125 -13.820312 L 1.503906 -13.820312 L 1.503906 0 Z M 4.828125 0 "/></g></g></g><g fill="#ffffff" fill-opacity="1"><g transform="translate(202.855401, 293.999042)"><g><path d="M 8.574219 0 L 8.574219 -2.757812 L 7.070312 -2.757812 C 6.035156 -2.757812 5.9375 -3.324219 5.9375 -4.039062 L 5.9375 -11.160156 L 8.597656 -11.160156 L 8.597656 -13.820312 L 5.9375 -13.820312 L 5.9375 -18.796875 L 2.613281 -18.796875 L 2.613281 -13.820312 L 0.566406 -13.820312 L 0.566406 -11.160156 L 2.613281 -11.160156 L 2.613281 -3.03125 C 2.613281 -0.886719 3.792969 0 5.839844 0 Z M 8.574219 0 "/></g></g></g><g fill="#ffffff" fill-opacity="1"><g transform="translate(212.289795, 293.999042)"><g><path d="M 5.222656 0 L 5.222656 -7.835938 L 13.28125 -7.835938 L 13.28125 0 L 16.828125 0 L 16.828125 -18.796875 L 13.28125 -18.796875 L 13.28125 -11.011719 L 5.222656 -11.011719 L 5.222656 -18.796875 L 1.675781 -18.796875 L 1.675781 0 Z M 5.222656 0 "/></g></g></g><g fill="#ffffff" fill-opacity="1"><g transform="translate(230.813716, 293.999042)"><g><path d="M 6.332031 0.269531 C 7.957031 0.269531 9.066406 -0.320312 10.078125 -1.75 L 10.078125 0 L 13.402344 0 L 13.402344 -13.820312 L 10.078125 -13.820312 L 10.078125 -6.800781 C 10.078125 -4.976562 9.855469 -3.964844 9.289062 -3.300781 C 8.820312 -2.734375 8.128906 -2.464844 7.167969 -2.464844 C 6.382812 -2.464844 5.8125 -2.660156 5.421875 -3.078125 C 4.953125 -3.597656 4.753906 -4.410156 4.753906 -5.839844 L 4.753906 -13.820312 L 1.429688 -13.820312 L 1.429688 -5.863281 C 1.429688 -3.867188 1.578125 -2.933594 2.019531 -2.019531 C 2.757812 -0.492188 4.1875 0.269531 6.332031 0.269531 Z M 6.332031 0.269531 "/></g></g></g><g fill="#ffffff" fill-opacity="1"><g transform="translate(245.74124, 293.999042)"><g><path d="M 8.769531 0.269531 C 12.394531 0.269531 14.855469 -2.683594 14.855469 -6.921875 C 14.855469 -11.160156 12.394531 -14.117188 8.769531 -14.117188 C 7.144531 -14.117188 5.960938 -13.648438 4.855469 -12.074219 L 4.855469 -18.796875 L 1.527344 -18.796875 L 1.527344 0 L 4.855469 0 L 4.855469 -1.75 C 5.960938 -0.195312 7.144531 0.269531 8.769531 0.269531 Z M 8.007812 -2.585938 C 5.886719 -2.585938 4.433594 -4.359375 4.433594 -6.921875 C 4.433594 -9.484375 5.886719 -11.257812 8.007812 -11.257812 C 10.125 -11.257812 11.503906 -9.4375 11.503906 -6.921875 C 11.503906 -4.410156 10.125 -2.585938 8.007812 -2.585938 Z M 8.007812 -2.585938 "/></g></g></g></svg>